<?xml version="1.0" encoding="UTF-8"?>
<svg xmlns="http://www.w3.org/2000/svg" xmlns:xlink="http://www.w3.org/1999/xlink" width="50pt" height="50pt" viewBox="0 0 50 50" version="1.1">
<g id="surface1">
<path style=" stroke:none;fill-rule:nonzero;fill:rgb(0%,0%,0%);fill-opacity:1;" d="M 39.640625 44.152344 C 37.917969 43.457031 35.925781 43.105469 33.730469 43.105469 C 28.339844 43.105469 23.210938 45.171875 21.667969 45.851562 L 21.667969 35.984375 L 22.386719 36.773438 L 22.386719 21.949219 C 25.109375 19.660156 28.40625 18.433594 32.222656 18.285156 L 32.964844 17.035156 C 28.480469 17.042969 24.609375 18.414062 21.464844 21.113281 C 18.3125 18.40625 14.433594 17.035156 9.933594 17.035156 C 5.734375 17.035156 2.582031 18.257812 2.453125 18.3125 L 2.066406 18.464844 L 2.066406 20.945312 C 0.792969 21.179688 0 21.605469 0 22.300781 C 0 25.921875 0 47.878906 0 47.878906 L 18.839844 47.878906 C 19.492188 48.464844 20.445312 48.835938 21.507812 48.835938 C 22.574219 48.835938 23.527344 48.464844 24.179688 47.878906 L 42.546875 47.878906 C 42.546875 47.878906 42.546875 23.820312 42.546875 22.328125 L 39.640625 28.34375 Z M 21.257812 45.867188 C 19.695312 45.222656 14.308594 43.171875 8.914062 43.171875 C 6.785156 43.171875 4.894531 43.503906 3.285156 44.148438 L 3.285156 19.308594 C 4.222656 18.996094 6.785156 18.257812 9.933594 18.257812 C 14.074219 18.257812 17.636719 19.507812 20.542969 21.953125 L 20.542969 36.777344 L 21.257812 35.988281 Z M 21.257812 45.867188 "/>
<path style=" stroke:none;fill-rule:nonzero;fill:rgb(0%,0%,0%);fill-opacity:1;" d="M 5.699219 22.574219 L 5.953125 23.527344 C 12.316406 21.84375 18.039062 24.964844 18.097656 24.996094 L 18.578125 24.128906 C 18.332031 23.996094 12.457031 20.78125 5.699219 22.574219 Z M 5.699219 22.574219 "/>
<path style=" stroke:none;fill-rule:nonzero;fill:rgb(0%,0%,0%);fill-opacity:1;" d="M 5.699219 25.371094 L 5.953125 26.328125 C 12.316406 24.640625 18.039062 27.765625 18.097656 27.792969 L 18.578125 26.929688 C 18.332031 26.792969 12.457031 23.582031 5.699219 25.371094 Z M 5.699219 25.371094 "/>
<path style=" stroke:none;fill-rule:nonzero;fill:rgb(0%,0%,0%);fill-opacity:1;" d="M 5.699219 28 L 5.953125 28.957031 C 12.316406 27.273438 18.039062 30.394531 18.097656 30.425781 L 18.578125 29.5625 C 18.332031 29.421875 12.457031 26.210938 5.699219 28 Z M 5.699219 28 "/>
<path style=" stroke:none;fill-rule:nonzero;fill:rgb(0%,0%,0%);fill-opacity:1;" d="M 5.699219 30.886719 L 5.953125 31.839844 C 12.316406 30.152344 18.039062 33.277344 18.097656 33.304688 L 18.578125 32.445312 C 18.332031 32.308594 12.457031 29.09375 5.699219 30.886719 Z M 5.699219 30.886719 "/>
<path style=" stroke:none;fill-rule:nonzero;fill:rgb(0%,0%,0%);fill-opacity:1;" d="M 5.699219 33.558594 L 5.953125 34.511719 C 12.316406 32.828125 18.039062 35.949219 18.097656 35.976562 L 18.578125 35.113281 C 18.332031 34.980469 12.457031 31.769531 5.699219 33.558594 Z M 5.699219 33.558594 "/>
<path style=" stroke:none;fill-rule:nonzero;fill:rgb(0%,0%,0%);fill-opacity:1;" d="M 5.699219 36.300781 L 5.953125 37.257812 C 12.316406 35.566406 18.039062 38.691406 18.097656 38.722656 L 18.578125 37.859375 C 18.332031 37.722656 12.457031 34.511719 5.699219 36.300781 Z M 5.699219 36.300781 "/>
<path style=" stroke:none;fill-rule:nonzero;fill:rgb(0%,0%,0%);fill-opacity:1;" d="M 5.699219 39.050781 L 5.953125 40.007812 C 12.316406 38.316406 18.039062 41.441406 18.097656 41.472656 L 18.578125 40.609375 C 18.332031 40.472656 12.457031 37.257812 5.699219 39.050781 Z M 5.699219 39.050781 "/>
<path style=" stroke:none;fill-rule:nonzero;fill:rgb(0%,0%,0%);fill-opacity:1;" d="M 42.496094 0.859375 L 39.515625 6.992188 L 39.527344 6.996094 L 30.308594 25.988281 L 29.503906 35.976562 L 37.398438 29.601562 L 46.710938 10.480469 L 46.722656 10.492188 L 49.699219 4.359375 Z M 36.859375 29.078125 L 32.355469 32.710938 L 30.570312 31.847656 L 31.011719 26.25 L 31.425781 25.382812 L 32.253906 28.316406 L 34.082031 27.140625 L 34.441406 29.371094 L 37.167969 28.453125 Z M 46.605469 7.320312 L 42.082031 5.125 L 43.183594 2.859375 L 47.703125 5.054688 Z M 46.605469 7.320312 "/>
</g>
</svg>
