<?xml version="1.0" encoding="UTF-8"?>
<svg xmlns="http://www.w3.org/2000/svg" xmlns:xlink="http://www.w3.org/1999/xlink" width="50pt" height="50pt" viewBox="0 0 50 50" version="1.1">
<g id="surface1">
<path style=" stroke:none;fill-rule:nonzero;fill:rgb(90.588235%,70.588235%,40.392157%);fill-opacity:1;" d="M 0.730469 44.097656 C 0.320312 44.089844 -0.0078125 43.75 0 43.339844 C 0.121094 36.792969 1.175781 31.371094 6.050781 24.585938 C 6.289062 24.25 6.753906 24.175781 7.089844 24.414062 C 7.425781 24.65625 7.5 25.121094 7.261719 25.457031 C 2.613281 31.925781 1.605469 37.105469 1.492188 43.367188 C 1.484375 43.777344 1.144531 44.105469 0.730469 44.097656 Z M 0.730469 44.097656 "/>
<path style=" stroke:none;fill-rule:nonzero;fill:rgb(65.098039%,59.607843%,65.098039%);fill-opacity:1;" d="M 49.089844 19.382812 C 49.050781 19.53125 49.007812 19.679688 48.957031 19.824219 C 48.148438 22.085938 45.65625 23.265625 43.394531 22.457031 C 41.964844 21.945312 40.96875 20.761719 40.632812 19.390625 C 40.570312 19.140625 40.25 19.082031 40.105469 19.289062 C 39.804688 19.722656 39.558594 20.207031 39.390625 20.738281 C 38.523438 23.4375 39.917969 26.394531 42.554688 27.441406 C 45.425781 28.582031 48.648438 27.109375 49.679688 24.222656 C 50.28125 22.542969 50.003906 20.765625 49.089844 19.382812 Z M 49.089844 19.382812 "/>
<path style=" stroke:none;fill-rule:nonzero;fill:rgb(56.078431%,50.588235%,56.078431%);fill-opacity:1;" d="M 49.089844 19.382812 C 49.050781 19.53125 49.007812 19.679688 48.957031 19.824219 C 48.550781 20.953125 47.726562 21.816406 46.722656 22.289062 C 46.734375 22.929688 46.632812 23.585938 46.40625 24.222656 C 45.808594 25.886719 44.488281 27.078125 42.925781 27.570312 C 45.699219 28.449219 48.691406 26.984375 49.679688 24.222656 C 50.28125 22.542969 50.003906 20.765625 49.089844 19.382812 Z M 49.089844 19.382812 "/>
<path style=" stroke:none;fill-rule:nonzero;fill:rgb(87.843137%,86.666667%,88.627451%);fill-opacity:1;" d="M 49.003906 16.316406 C 45.261719 6.832031 32.058594 3.15625 19.511719 8.105469 C 8.386719 12.496094 1.515625 22.195312 2.714844 30.953125 C 2.769531 31.335938 3.175781 31.5625 3.53125 31.402344 C 9.636719 28.660156 16.140625 28.320312 21.511719 30.152344 C 21.765625 30.238281 21.957031 29.917969 21.757812 29.734375 C 19.371094 27.535156 18.183594 24.734375 18.847656 22.089844 C 18.933594 21.75 19.046875 21.421875 19.191406 21.105469 C 20.359375 22.8125 22.183594 24.328125 24.449219 25.410156 C 24.640625 25.503906 24.871094 25.410156 24.941406 25.207031 C 25.996094 22.125 28.382812 19.15625 31.792969 17.117188 C 38.25 13.253906 45.910156 14.179688 48.90625 19.1875 C 49.464844 20.121094 49.820312 21.128906 49.988281 22.179688 C 50.0625 20.183594 49.75 18.207031 49.003906 16.316406 Z M 49.003906 16.316406 "/>
<path style=" stroke:none;fill-rule:nonzero;fill:rgb(78.431373%,75.686275%,78.823529%);fill-opacity:1;" d="M 49.988281 22.179688 C 50.0625 20.183594 49.75 18.207031 49.003906 16.316406 C 48.273438 14.460938 47.179688 12.832031 45.800781 11.441406 C 38.585938 7.65625 27.601562 8.546875 17.71875 14.460938 C 10.375 18.855469 5.1875 25.097656 2.976562 31.359375 C 3.132812 31.460938 3.339844 31.488281 3.53125 31.402344 C 9.636719 28.660156 16.140625 28.320312 21.511719 30.152344 C 21.765625 30.238281 21.957031 29.921875 21.761719 29.738281 C 19.371094 27.535156 18.183594 24.734375 18.847656 22.089844 C 18.902344 21.867188 18.972656 21.652344 19.050781 21.441406 C 19.105469 21.292969 19.304688 21.269531 19.398438 21.394531 C 20.570312 22.984375 22.3125 24.390625 24.449219 25.410156 C 24.640625 25.503906 24.871094 25.410156 24.941406 25.207031 C 25.996094 22.125 28.382812 19.15625 31.792969 17.117188 C 38.25 13.253906 45.910156 14.179688 48.90625 19.1875 C 49.464844 20.121094 49.820312 21.128906 49.988281 22.179688 Z M 49.988281 22.179688 "/>
<path style=" stroke:none;fill-rule:nonzero;fill:rgb(78.431373%,75.686275%,78.823529%);fill-opacity:1;" d="M 49.003906 16.316406 C 45.859375 8.335938 36.015625 4.46875 25.5 6.386719 C 33.101562 6.398438 39.738281 9.515625 42.851562 15.03125 C 45.425781 15.609375 47.605469 17.015625 48.90625 19.1875 C 49.464844 20.121094 49.820312 21.128906 49.988281 22.179688 C 50.0625 20.183594 49.75 18.207031 49.003906 16.316406 Z M 49.003906 16.316406 "/>
<path style=" stroke:none;fill-rule:nonzero;fill:rgb(65.098039%,59.607843%,65.098039%);fill-opacity:1;" d="M 49.003906 16.316406 C 48.273438 14.460938 47.179688 12.832031 45.800781 11.441406 C 43.234375 10.09375 40.191406 9.339844 36.894531 9.191406 C 39.417969 10.632812 41.476562 12.601562 42.851562 15.03125 C 45.425781 15.609375 47.605469 17.015625 48.90625 19.1875 C 49.464844 20.121094 49.820312 21.128906 49.988281 22.179688 C 50.0625 20.183594 49.75 18.207031 49.003906 16.316406 Z M 49.003906 16.316406 "/>
</g>
</svg>
