<?xml version="1.0" encoding="UTF-8"?>
<svg xmlns="http://www.w3.org/2000/svg" xmlns:xlink="http://www.w3.org/1999/xlink" width="50pt" height="50pt" viewBox="0 0 50 50" version="1.1">
<g id="surface1">
<path style=" stroke:none;fill-rule:nonzero;fill:rgb(0%,0%,0%);fill-opacity:1;" d="M 44.195312 17.273438 C 44.113281 17.121094 44.039062 16.980469 43.972656 16.851562 C 43.964844 16.835938 43.957031 16.824219 43.949219 16.808594 C 42.699219 14.644531 41.542969 13.460938 40.199219 12.964844 C 39.371094 12.65625 38.566406 12.652344 37.746094 12.753906 L 37.828125 7.769531 C 37.851562 6.4375 37.316406 5.128906 36.367188 4.1875 C 35.460938 3.285156 34.273438 2.800781 33.027344 2.832031 C 31.871094 2.859375 30.8125 3.257812 29.980469 3.910156 C 29.765625 2.957031 29.28125 2.074219 28.582031 1.382812 C 27.648438 0.460938 26.433594 -0.0273438 25.15625 0 C 22.484375 0.0625 20.332031 2.054688 20.125 4.597656 C 19.207031 3.574219 17.851562 2.929688 16.339844 2.929688 C 15.09375 2.929688 13.917969 3.441406 13.03125 4.363281 C 12.324219 5.101562 11.867188 6.042969 11.71875 7.039062 C 10.921875 6.488281 9.941406 6.167969 8.886719 6.167969 C 7.675781 6.167969 6.535156 6.660156 5.675781 7.558594 C 4.78125 8.492188 4.296875 9.765625 4.351562 11.054688 L 4.464844 13.8125 L 4.464844 24.785156 C 4.464844 27.332031 5.164062 29.851562 5.835938 32.285156 C 6.410156 34.359375 6.957031 36.332031 7.101562 38.289062 L 6.726562 38.289062 C 6.1875 38.289062 5.75 38.726562 5.75 39.265625 L 5.75 49.023438 C 5.75 49.5625 6.1875 50 6.726562 50 L 37.566406 50 C 38.105469 50 38.542969 49.5625 38.542969 49.023438 L 38.542969 39.265625 C 38.542969 38.726562 38.105469 38.289062 37.566406 38.289062 L 37.183594 38.289062 C 37.375 34.589844 38.636719 33.304688 40.34375 31.574219 C 41.855469 30.035156 43.742188 28.121094 45.246094 24.132812 C 46.332031 21.253906 44.992188 18.761719 44.195312 17.273438 Z M 33.070312 4.785156 C 33.78125 4.773438 34.464844 5.046875 34.992188 5.570312 C 35.566406 6.144531 35.890625 6.933594 35.875 7.738281 L 35.785156 13.105469 C 35.710938 13.121094 35.636719 13.132812 35.558594 13.148438 C 32.816406 13.628906 31.15625 13.46875 29.9375 13.304688 L 30.078125 7.632812 C 30.078125 7.628906 30.078125 7.628906 30.078125 7.628906 C 30.105469 6.070312 31.421875 4.820312 33.070312 4.785156 Z M 22.058594 4.945312 C 22.089844 3.308594 23.472656 1.996094 25.203125 1.953125 C 25.945312 1.9375 26.65625 2.226562 27.210938 2.773438 C 27.816406 3.375 28.160156 4.207031 28.152344 5.066406 L 28.125 7.589844 L 27.988281 13.1875 C 27.199219 13.34375 26.519531 13.90625 26.105469 14.769531 C 25.425781 16.183594 25.433594 18.519531 27.050781 20.304688 C 27.21875 20.492188 27.390625 20.664062 27.554688 20.824219 C 26.644531 21.273438 25.828125 21.855469 25.105469 22.523438 L 24.800781 22.523438 C 24.792969 22.523438 24.785156 22.523438 24.777344 22.523438 C 24.03125 22.539062 23.308594 22.246094 22.753906 21.691406 C 22.195312 21.136719 21.867188 20.390625 21.832031 19.613281 C 21.832031 19.546875 21.832031 19.480469 21.828125 19.414062 C 21.867188 17.359375 22.019531 6.992188 22.058594 4.945312 Z M 14.441406 5.714844 C 14.957031 5.179688 15.628906 4.882812 16.339844 4.882812 C 17.980469 4.882812 19.316406 6.097656 19.382812 7.644531 L 19.878906 19.433594 C 19.875 19.5 19.875 19.566406 19.878906 19.628906 C 19.863281 20.363281 19.566406 21.078125 19.054688 21.613281 C 18.539062 22.148438 17.867188 22.445312 17.15625 22.445312 C 15.515625 22.445312 14.175781 21.234375 14.113281 19.683594 L 13.734375 10.664062 L 13.617188 7.886719 C 13.585938 7.085938 13.882812 6.296875 14.441406 5.714844 Z M 7.085938 8.910156 C 7.574219 8.398438 8.214844 8.121094 8.886719 8.121094 C 10.449219 8.121094 11.71875 9.273438 11.78125 10.742188 L 11.78125 10.746094 L 12.054688 17.269531 L 12.054688 17.273438 C 12.085938 18.03125 11.800781 18.78125 11.273438 19.335938 C 10.785156 19.84375 10.144531 20.125 9.472656 20.125 C 7.910156 20.125 6.636719 18.972656 6.574219 17.5 L 6.300781 10.972656 C 6.269531 10.214844 6.554688 9.460938 7.085938 8.910156 Z M 43.417969 23.445312 C 42.058594 27.046875 40.410156 28.722656 38.953125 30.203125 C 37.074219 32.109375 35.4375 33.773438 35.226562 38.289062 L 26.542969 38.289062 C 26.003906 38.289062 25.566406 38.726562 25.566406 39.265625 C 25.566406 39.804688 26.003906 40.242188 26.542969 40.242188 L 36.589844 40.242188 L 36.589844 48.046875 L 7.703125 48.046875 L 7.703125 40.242188 L 17.753906 40.242188 C 18.292969 40.242188 18.730469 39.804688 18.730469 39.265625 C 18.730469 38.726562 18.292969 38.289062 17.753906 38.289062 L 9.058594 38.289062 C 8.914062 36.074219 8.308594 33.890625 7.71875 31.765625 C 7.050781 29.347656 6.417969 27.066406 6.417969 24.785156 L 6.417969 21.039062 C 7.253906 21.6875 8.316406 22.078125 9.472656 22.078125 C 10.542969 22.078125 11.558594 21.691406 12.371094 20.980469 C 12.996094 22.972656 14.902344 24.398438 17.15625 24.398438 C 18.402344 24.398438 19.578125 23.890625 20.464844 22.964844 C 20.609375 22.8125 20.742188 22.652344 20.867188 22.484375 C 21.019531 22.695312 21.1875 22.890625 21.375 23.074219 C 21.988281 23.6875 22.726562 24.109375 23.523438 24.320312 C 21.972656 26.472656 21.171875 28.988281 21.171875 30.902344 C 21.171875 31.441406 21.609375 31.878906 22.148438 31.878906 C 22.6875 31.878906 23.125 31.441406 23.125 30.902344 C 23.125 28.085938 25.386719 23.441406 29.492188 22.148438 C 30.480469 22.582031 31.425781 22.667969 32.351562 22.753906 C 32.878906 22.804688 33.425781 22.855469 33.984375 22.976562 C 34.511719 23.085938 35.03125 22.753906 35.144531 22.226562 C 35.257812 21.699219 34.921875 21.179688 34.394531 21.066406 C 33.722656 20.921875 33.117188 20.863281 32.53125 20.808594 C 31.015625 20.671875 29.925781 20.570312 28.496094 18.996094 C 27.539062 17.9375 27.457031 16.464844 27.867188 15.613281 C 27.964844 15.414062 28.171875 15.074219 28.476562 15.09375 C 28.730469 15.109375 29.03125 15.152344 29.375 15.199219 C 30.667969 15.378906 32.625 15.648438 35.898438 15.070312 C 36.199219 15.019531 36.488281 14.960938 36.765625 14.90625 C 39.121094 14.441406 40.199219 14.230469 42.246094 17.765625 C 42.3125 17.898438 42.390625 18.042969 42.472656 18.195312 C 43.199219 19.546875 44.191406 21.394531 43.417969 23.445312 Z M 43.417969 23.445312 "/>
<path style=" stroke:none;fill-rule:nonzero;fill:rgb(0%,0%,0%);fill-opacity:1;" d="M 22.148438 38.289062 C 21.609375 38.289062 21.171875 38.726562 21.171875 39.265625 C 21.171875 39.804688 21.609375 40.242188 22.148438 40.242188 C 22.6875 40.242188 23.125 39.804688 23.125 39.265625 C 23.125 38.726562 22.6875 38.289062 22.148438 38.289062 Z M 22.148438 38.289062 "/>
</g>
</svg>
