<?xml version="1.0" encoding="UTF-8"?>
<svg xmlns="http://www.w3.org/2000/svg" xmlns:xlink="http://www.w3.org/1999/xlink" width="50pt" height="50pt" viewBox="0 0 50 50" version="1.1">
<g id="surface1">
<path style=" stroke:none;fill-rule:nonzero;fill:rgb(0%,0%,0%);fill-opacity:1;" d="M 46.785156 35.890625 C 45.140625 36.246094 43.449219 36.425781 41.75 36.425781 C 35.414062 36.425781 29.445312 33.96875 24.949219 29.5 C 20.453125 25.035156 17.925781 19.058594 17.835938 12.679688 C 17.832031 12.277344 17.503906 11.957031 17.105469 11.957031 C 17.101562 11.957031 17.097656 11.957031 17.09375 11.957031 C 16.6875 11.960938 16.367188 12.292969 16.371094 12.699219 C 16.46875 19.464844 19.148438 25.804688 23.917969 30.539062 C 28.6875 35.28125 35.023438 37.890625 41.75 37.890625 C 43.421875 37.890625 45.089844 37.726562 46.714844 37.402344 C 44.601562 40.730469 41.691406 43.507812 38.273438 45.445312 C 34.636719 47.511719 30.492188 48.578125 26.292969 48.53125 C 19.9375 48.464844 13.988281 45.929688 9.539062 41.398438 C 5.089844 36.867188 2.636719 30.839844 2.636719 24.433594 C 2.636719 19.265625 4.238281 14.335938 7.265625 10.179688 C 10.15625 6.214844 14.09375 3.28125 18.667969 1.671875 C 17.746094 3.699219 17.09375 5.835938 16.722656 8.035156 C 16.65625 8.433594 16.925781 8.8125 17.324219 8.878906 C 17.722656 8.945312 18.101562 8.675781 18.167969 8.277344 C 18.535156 6.085938 19.203125 3.960938 20.15625 1.953125 C 20.378906 1.480469 20.300781 0.921875 19.953125 0.53125 C 19.605469 0.140625 19.0625 -0.0078125 18.570312 0.15625 C 13.546875 1.832031 9.230469 5 6.082031 9.320312 C 2.871094 13.726562 1.171875 18.953125 1.171875 24.433594 C 1.171875 31.226562 3.773438 37.617188 8.492188 42.425781 C 13.214844 47.238281 19.53125 49.925781 26.277344 50 C 26.367188 50 26.457031 50 26.550781 50 C 30.917969 50 35.214844 48.867188 38.996094 46.722656 C 42.738281 44.597656 45.90625 41.53125 48.164062 37.847656 C 48.4375 37.402344 48.417969 36.835938 48.117188 36.410156 C 47.8125 35.984375 47.292969 35.78125 46.785156 35.890625 Z M 46.785156 35.890625 "/>
<path style=" stroke:none;fill-rule:nonzero;fill:rgb(0%,0%,0%);fill-opacity:1;" d="M 48.871094 7.851562 C 48.695312 7.304688 48.230469 6.914062 47.664062 6.832031 L 42.027344 6.007812 C 42.015625 6.003906 42.007812 5.996094 42 5.988281 L 39.480469 0.839844 C 39.226562 0.324219 38.710938 0 38.136719 0 C 37.558594 0 37.042969 0.324219 36.789062 0.839844 L 34.269531 5.984375 C 34.261719 5.996094 34.253906 6.003906 34.242188 6.007812 L 28.609375 6.832031 C 28.039062 6.914062 27.578125 7.304688 27.398438 7.851562 C 27.21875 8.402344 27.363281 8.996094 27.773438 9.398438 L 31.851562 13.402344 C 31.863281 13.414062 31.867188 13.425781 31.863281 13.441406 L 30.902344 19.097656 C 30.804688 19.667969 31.035156 20.234375 31.503906 20.570312 C 31.765625 20.761719 32.070312 20.855469 32.378906 20.855469 C 32.617188 20.855469 32.859375 20.800781 33.082031 20.683594 L 38.121094 18.011719 C 38.128906 18.007812 38.140625 18.007812 38.148438 18.011719 L 43.191406 20.683594 C 43.699219 20.949219 44.300781 20.910156 44.765625 20.570312 C 45.234375 20.234375 45.464844 19.667969 45.367188 19.097656 L 44.40625 13.441406 C 44.402344 13.425781 44.410156 13.414062 44.417969 13.402344 L 44.816406 13.011719 C 45.105469 12.730469 45.109375 12.265625 44.824219 11.976562 C 44.542969 11.6875 44.078125 11.683594 43.789062 11.964844 L 43.390625 12.355469 C 43.039062 12.703125 42.878906 13.199219 42.960938 13.6875 L 43.925781 19.34375 C 43.925781 19.355469 43.929688 19.367188 43.910156 19.382812 C 43.894531 19.394531 43.886719 19.394531 43.875 19.386719 L 38.835938 16.714844 C 38.398438 16.484375 37.875 16.484375 37.433594 16.714844 L 32.394531 19.386719 C 32.382812 19.394531 32.378906 19.394531 32.363281 19.382812 C 32.34375 19.367188 32.34375 19.355469 32.347656 19.34375 L 33.308594 13.6875 C 33.390625 13.199219 33.230469 12.703125 32.878906 12.355469 L 28.800781 8.351562 C 28.792969 8.34375 28.785156 8.332031 28.792969 8.308594 C 28.800781 8.285156 28.808594 8.285156 28.820312 8.28125 L 34.457031 7.457031 C 34.945312 7.386719 35.367188 7.074219 35.585938 6.628906 L 38.105469 1.484375 C 38.113281 1.472656 38.117188 1.464844 38.136719 1.464844 C 38.15625 1.464844 38.160156 1.472656 38.164062 1.484375 L 40.6875 6.628906 C 40.902344 7.078125 41.324219 7.386719 41.816406 7.457031 L 47.449219 8.28125 C 47.460938 8.285156 47.472656 8.285156 47.480469 8.308594 C 47.488281 8.332031 47.476562 8.34375 47.46875 8.351562 L 47.027344 8.789062 C 46.738281 9.070312 46.734375 9.535156 47.015625 9.824219 C 47.300781 10.113281 47.765625 10.117188 48.050781 9.832031 L 48.496094 9.398438 C 48.90625 8.996094 49.050781 8.402344 48.871094 7.851562 Z M 48.871094 7.851562 "/>
</g>
</svg>
