<?xml version="1.0" encoding="UTF-8"?>
<svg xmlns="http://www.w3.org/2000/svg" xmlns:xlink="http://www.w3.org/1999/xlink" width="50pt" height="50pt" viewBox="0 0 50 50" version="1.1">
<g id="surface1">
<path style=" stroke:none;fill-rule:nonzero;fill:rgb(0%,0%,0%);fill-opacity:1;" d="M 39.648438 19.238281 L 39.648438 14.648438 C 39.648438 6.570312 33.078125 0 25 0 C 16.921875 0 10.351562 6.570312 10.351562 14.648438 L 10.351562 19.238281 C 8.125 19.691406 6.445312 21.664062 6.445312 24.023438 L 6.445312 29.566406 C 6.445312 30.105469 6.882812 30.542969 7.421875 30.542969 C 7.960938 30.542969 8.398438 30.105469 8.398438 29.566406 L 8.398438 24.023438 C 8.398438 22.40625 9.710938 21.09375 11.328125 21.09375 L 38.671875 21.09375 C 40.289062 21.09375 41.601562 22.40625 41.601562 24.023438 L 41.601562 45.117188 C 41.601562 46.390625 40.785156 47.476562 39.648438 47.878906 L 39.648438 41.992188 C 39.648438 41.453125 39.210938 41.015625 38.671875 41.015625 C 38.132812 41.015625 37.695312 41.453125 37.695312 41.992188 L 37.695312 48.046875 L 11.328125 48.046875 C 9.710938 48.046875 8.398438 46.734375 8.398438 45.117188 L 8.398438 37.402344 C 8.398438 36.863281 7.960938 36.425781 7.421875 36.425781 C 6.882812 36.425781 6.445312 36.863281 6.445312 37.402344 L 6.445312 45.117188 C 6.445312 47.808594 8.636719 50 11.328125 50 L 38.671875 50 C 41.363281 50 43.554688 47.808594 43.554688 45.117188 L 43.554688 24.023438 C 43.554688 21.664062 41.875 19.691406 39.648438 19.238281 Z M 17.578125 19.140625 L 17.578125 14.648438 C 17.578125 10.554688 20.90625 7.226562 25 7.226562 C 29.09375 7.226562 32.421875 10.554688 32.421875 14.648438 L 32.421875 19.140625 Z M 34.375 19.140625 L 34.375 14.648438 C 34.375 9.480469 30.167969 5.273438 25 5.273438 C 19.832031 5.273438 15.625 9.480469 15.625 14.648438 L 15.625 19.140625 L 12.304688 19.140625 L 12.304688 14.648438 C 12.304688 7.648438 18 1.953125 25 1.953125 C 32 1.953125 37.695312 7.648438 37.695312 14.648438 L 37.695312 19.140625 Z M 34.375 19.140625 "/>
<path style=" stroke:none;fill-rule:nonzero;fill:rgb(0%,0%,0%);fill-opacity:1;" d="M 7.421875 34.421875 C 7.679688 34.421875 7.929688 34.320312 8.113281 34.136719 C 8.292969 33.953125 8.398438 33.703125 8.398438 33.445312 C 8.398438 33.1875 8.292969 32.9375 8.113281 32.757812 C 7.929688 32.574219 7.679688 32.46875 7.421875 32.46875 C 7.164062 32.46875 6.914062 32.574219 6.730469 32.757812 C 6.550781 32.9375 6.445312 33.1875 6.445312 33.445312 C 6.445312 33.703125 6.550781 33.953125 6.730469 34.136719 C 6.914062 34.320312 7.164062 34.421875 7.421875 34.421875 Z M 7.421875 34.421875 "/>
<path style=" stroke:none;fill-rule:nonzero;fill:rgb(0%,0%,0%);fill-opacity:1;" d="M 25 44.726562 C 26.617188 44.726562 27.929688 43.414062 27.929688 41.796875 L 27.929688 36.609375 C 29.398438 35.640625 30.285156 34.007812 30.285156 32.21875 C 30.285156 29.3125 27.921875 26.945312 25.011719 26.945312 C 22.105469 26.945312 19.738281 29.3125 19.738281 32.21875 C 19.738281 33.996094 20.617188 35.621094 22.070312 36.59375 L 22.070312 41.796875 C 22.070312 43.414062 23.382812 44.726562 25 44.726562 Z M 21.691406 32.21875 C 21.691406 30.386719 23.179688 28.898438 25.011719 28.898438 C 26.84375 28.898438 28.332031 30.386719 28.332031 32.21875 C 28.332031 33.476562 27.636719 34.609375 26.511719 35.179688 C 26.183594 35.347656 25.976562 35.683594 25.976562 36.050781 L 25.976562 41.796875 C 25.976562 42.335938 25.539062 42.773438 25 42.773438 C 24.460938 42.773438 24.023438 42.335938 24.023438 41.796875 L 24.023438 36.039062 C 24.023438 35.671875 23.820312 35.339844 23.496094 35.171875 C 22.382812 34.597656 21.691406 33.464844 21.691406 32.21875 Z M 21.691406 32.21875 "/>
<path style=" stroke:none;fill-rule:nonzero;fill:rgb(0%,0%,0%);fill-opacity:1;" d="M 38.671875 38.964844 C 38.929688 38.964844 39.179688 38.859375 39.363281 38.679688 C 39.542969 38.496094 39.648438 38.246094 39.648438 37.988281 C 39.648438 37.730469 39.542969 37.480469 39.363281 37.296875 C 39.179688 37.117188 38.929688 37.011719 38.671875 37.011719 C 38.414062 37.011719 38.164062 37.117188 37.980469 37.296875 C 37.800781 37.480469 37.695312 37.730469 37.695312 37.988281 C 37.695312 38.246094 37.800781 38.496094 37.980469 38.679688 C 38.164062 38.859375 38.414062 38.964844 38.671875 38.964844 Z M 38.671875 38.964844 "/>
</g>
</svg>
